<svg id="svg" xmlns="http://www.w3.org/2000/svg" xmlns:xlink="http://www.w3.org/1999/xlink" width="400" height="400" viewBox="0, 0, 400,400"><g id="svgg"><path id="path0" d="M373.438 18.109 C 370.000 18.841,350.346 26.458,329.762 35.036 C 289.355 51.876,287.545 52.041,253.125 42.047 C 229.861 35.292,170.139 35.292,146.875 42.047 C 112.328 52.078,110.610 51.917,68.292 34.702 C -3.269 5.591,0.000 0.881,0.000 133.088 C 0.000 230.823,0.428 238.974,6.516 257.130 C 63.503 427.087,344.532 422.084,395.014 250.214 C 402.836 223.586,402.424 31.176,394.531 24.397 C 387.457 18.321,381.202 16.456,373.438 18.109 M148.011 217.614 C 157.419 227.021,159.547 237.388,154.523 249.335 C 141.510 280.284,96.875 271.637,96.875 238.167 C 96.875 210.915,128.573 198.175,148.011 217.614 M295.347 219.361 C 306.345 232.432,305.828 247.777,293.990 259.615 C 278.316 275.290,254.246 270.190,245.477 249.335 C 232.318 218.040,273.439 193.325,295.347 219.361 " stroke="none" fill="#000000" fill-rule="evenodd"></path></g></svg>