<?xml version="1.0" encoding="UTF-8"?>
<svg viewBox="0 0 207 115" version="1.1" xmlns="http://www.w3.org/2000/svg"
     xmlns:xlink="http://www.w3.org/1999/xlink">
    <!-- Generator: Sketch 54.1 (76490) - https://sketchapp.com -->
    <title>Sailor Binoculars</title>
    <desc>Created with Sketch.</desc>
    <g id="Images" stroke="none" stroke-width="1" fill="none" fill-rule="evenodd"
       stroke-linecap="round" stroke-linejoin="round">
        <g id="Medium" transform="translate(-358.000000, -1539.000000)" stroke="#C2C8CC"
           stroke-width="2">
            <g id="Sailor-Binoculars" transform="translate(359.000000, 1540.000000)">
                <g id="Asset-50">
                    <g id="Layer_2">
                        <g id="Layer_1-2">
                            <path d="M50.47,37 L31.1,37 C14.92,37 1.1,49.35 0.1,65.5 C-0.437564371,73.9495085 2.55432783,82.2433742 8.36223177,88.4038467 C14.1701357,94.5643192 22.2734996,98.0392467 30.74,98 L37.48,98 L37.48,88 L31,88 C20.2,88 10.89,79.84 10.1,69.07 C9.67530222,63.3458986 11.6639251,57.7050412 15.5845133,53.512823 C19.5051015,49.3206049 25.0003106,46.9591285 30.74,47 L57.47,47"
                                  id="Shape"></path>
                            <path d="M61.94,27.38 C60.7622678,26.2111146 59.1065847,25.65869 57.4629362,25.8862118 C55.8192878,26.1137335 54.3759254,27.0951429 53.56,28.54 C51.5880485,31.9622331 50.441029,35.7970445 50.21,39.74"
                                  id="Shape"></path>
                            <path d="M155.47,37 L173.84,37 C190.02,37 203.84,49.35 204.84,65.5 C205.377441,73.9477659 202.386883,82.2400314 196.581181,88.4001788 C190.775479,94.5603263 182.674766,98.0364679 174.21,98 L167.47,98 L167.47,88 L174,88 C184.8,88 194.11,79.84 194.9,69.07 C195.325464,63.3371533 193.330212,57.6881839 189.398562,53.4942976 C185.466913,49.3004113 179.958351,46.9450704 174.21,47 L147.47,47"
                                  id="Shape"></path>
                            <rect id="Rectangle-path" fill="#F8F9F9" fill-rule="nonzero" x="64.47"
                                  y="79" width="78" height="34"></rect>
                            <rect id="Rectangle-path" fill="#F8F9F9" fill-rule="nonzero" x="142.47"
                                  y="79" width="27" height="23"></rect>
                            <rect id="Rectangle-path" fill="#F8F9F9" fill-rule="nonzero"
                                  transform="translate(50.970000, 90.500000) rotate(-180.000000) translate(-50.970000, -90.500000) "
                                  x="37.47" y="79" width="27" height="23"></rect>
                            <path d="M38.47,85 L169.47,85" id="Shape"></path>
                            <path d="M38.47,90 L169.47,90" id="Shape"></path>
                            <path d="M116,79 C116,86.1797017 110.179702,92 103,92 C95.8202983,92 90,86.1797017 90,79"
                                  id="Shape" fill="#FFFFFF" fill-rule="nonzero"></path>
                            <path d="M92.6,0 L113.35,0 C116.735506,-2.22044605e-16 119.48,2.74449448 119.48,6.13 L119.48,7.5 C119.480073,8.32067908 118.820606,8.98905762 118,9 L88,9 C87.1715729,9 86.5,8.32842712 86.5,7.5 L86.5,6.13 C86.4999596,2.75617569 89.2262161,0.0165113748 92.6,1.11022302e-15 L92.6,0 Z"
                                  id="Shape" fill="#F8F9F9" fill-rule="nonzero"></path>
                            <rect id="Rectangle-path" fill="#FFFFFF" fill-rule="nonzero" x="75.47"
                                  y="6" width="56" height="75" rx="27.98"></rect>
                            <path d="M102.47,39 L102.47,53 L99.58,53 C97.9231458,53 96.58,54.3431458 96.58,56 L96.58,56 C96.58,57.6568542 97.9231458,59 99.58,59 L104.47,59"
                                  id="Shape"></path>
                            <path d="M125.83,25 L80.16,25 L75.16,10.5 C84.1181298,7.63185584 93.4639616,6.15797332 102.87,6.13 C112.370429,6.17436375 121.809866,7.65096137 130.87,10.51 L125.83,25 Z"
                                  id="Shape" fill="#FFFFFF" fill-rule="nonzero"></path>
                            <path d="M99.47,12 L106.47,12" id="Shape"></path>
                            <path d="M102.47,10 L102.47,19" id="Shape"></path>
                            <path d="M106.4,16.44 C106.298695,18.3681188 104.705778,19.87954 102.775,19.87954 C100.844222,19.87954 99.2513047,18.3681188 99.15,16.44"
                                  id="Shape"></path>
                            <path d="M116.8,28.84 C116.71,28.84 116.62,29 116.53,29 L89.14,29 C89.05,29 88.96,28.84 88.87,28.84 C85.8087079,28.8240406 82.8671772,30.0282754 80.6959292,32.186387 C78.5246812,34.3444987 77.3026181,37.2786675 77.3,40.34 C77.2763038,46.7940323 82.4178528,52.0822288 88.87,52.24 C95.26,52.24 100.44,46 100.44,41 L105.22,41 C105.22,47.8 114.81,56.84 123.99,49.43 C126.144745,47.7488028 127.624462,45.3500276 128.16,42.67 C128.79584,39.2757982 127.897129,35.7742098 125.705259,33.1057632 C123.51339,30.4373166 120.253062,28.8755666 116.8,28.84 L116.8,28.84 Z"
                                  id="Shape" fill="#F8F9F9" fill-rule="nonzero"></path>
                            <circle id="Oval" fill="#F8F9F9" fill-rule="nonzero" cx="129.97"
                                    cy="41.5" r="19.5"></circle>
                            <path d="M130.29,53.66 C123.452715,53.66 117.91,48.1172852 117.91,41.28 C117.91,34.4427148 123.452715,28.9 130.29,28.9 C137.127285,28.9 142.67,34.4427148 142.67,41.28 C142.658988,48.1127188 137.122719,53.6489883 130.29,53.66 L130.29,53.66 Z"
                                  id="Shape" fill="#FFFFFF" fill-rule="nonzero"></path>
                            <path d="M130.29,33.39 C134.63972,33.3955095 138.164491,36.9202803 138.17,41.27"
                                  id="Shape" fill="#FFFFFF" fill-rule="nonzero"></path>
                            <circle id="Oval" fill="#F8F9F9" fill-rule="nonzero" cx="74.97"
                                    cy="41.5" r="19.5"></circle>
                            <path d="M75.39,53.66 C68.554017,53.6599978 63.0118436,48.1193134 63.0100045,41.2833306 C63.0081654,34.4473479 68.5473567,28.9036822 75.3833387,28.9000018 C82.2193207,28.8963213 87.7644782,34.4340193 87.77,41.27 C87.7644955,48.1066237 82.2266171,53.6489754 75.39,53.66 L75.39,53.66 Z"
                                  id="Shape" fill="#FFFFFF" fill-rule="nonzero"></path>
                            <path d="M75.39,33.39 C79.7397197,33.3955095 83.2644905,36.9202803 83.27,41.27"
                                  id="Shape" fill="#FFFFFF" fill-rule="nonzero"></path>
                            <path d="M112.47,33 L93.47,33" id="Shape"></path>
                            <path d="M103.47,92 L103.47,106" id="Shape"></path>
                            <path d="M143.47,27.38 C144.647732,26.2111146 146.303415,25.65869 147.947064,25.8862118 C149.590712,26.1137335 151.034075,27.0951429 151.85,28.54 C153.821952,31.9622331 154.968971,35.7970445 155.2,39.74"
                                  id="Shape"></path>
                            <path d="M107.13,65.49 C105.82828,66.7931421 104.061916,67.5253593 102.22,67.5253593 C100.378084,67.5253593 98.6117197,66.7931421 97.31,65.49"
                                  id="Shape" fill="#FFFFFF" fill-rule="nonzero"></path>
                        </g>
                    </g>
                </g>
            </g>
        </g>
    </g>
</svg>
