<svg xmlns="http://www.w3.org/2000/svg" xmlns:xlink="http://www.w3.org/1999/xlink" width="320px" height="320px" viewBox="0 0 320 320" version="1.1"><title>Notely_small</title><desc>Created with Sketch.</desc><defs><rect id="path-1" x="0" y="0" width="320" height="80"/><filter x="-6.2%" y="-25.0%" width="112.5%" height="150.0%" filterUnits="objectBoundingBox" id="filter-2"><feGaussianBlur stdDeviation="15"/></filter><circle id="path-3" cx="42" cy="114" r="14"/><filter x="-71.4%" y="-71.4%" width="242.9%" height="242.9%" filterUnits="objectBoundingBox" id="filter-4"><feGaussianBlur stdDeviation="15"/></filter><circle id="path-5" cx="42" cy="204" r="14"/><filter x="-71.4%" y="-71.4%" width="242.9%" height="242.9%" filterUnits="objectBoundingBox" id="filter-6"><feGaussianBlur stdDeviation="15"/></filter><circle id="path-7" cx="42" cy="294" r="14"/><filter x="-71.4%" y="-71.4%" width="242.9%" height="242.9%" filterUnits="objectBoundingBox" id="filter-8"><feGaussianBlur stdDeviation="15"/></filter></defs><g id="Notely" stroke="none" stroke-width="1" fill="none" fill-rule="evenodd"><rect fill="#FFFFFF" x="0" y="0" width="320" height="320"/><g id="Rectangle" fill-rule="nonzero"><use fill="#FFB648" xlink:href="#path-1"/><use fill="black" fill-opacity="1" xlink:href="#path-1"/></g><rect id="Rectangle-3" fill="#D8DCDE" fill-rule="nonzero" x="68" y="104" width="120" height="20" rx="4"/><rect id="Rectangle-3" fill="#E9EBED" fill-rule="nonzero" x="70" y="135" width="170" height="8" rx="2"/><rect id="Rectangle-3" fill="#E9EBED" fill-rule="nonzero" x="70" y="155" width="170" height="8" rx="2"/><rect id="Rectangle-4" fill="#E9EBED" fill-rule="nonzero" x="40" y="80" width="4" height="240"/><g id="Oval-2" fill-rule="nonzero"><use fill="#FFB648" xlink:href="#path-3"/><use fill="black" fill-opacity="1" xlink:href="#path-3"/></g><rect id="Rectangle-3" fill="#D8DCDE" fill-rule="nonzero" x="68" y="194" width="120" height="20" rx="4"/><rect id="Rectangle-3" fill="#E9EBED" fill-rule="nonzero" x="70" y="225" width="170" height="8" rx="2"/><rect id="Rectangle-3" fill="#E9EBED" fill-rule="nonzero" x="70" y="245" width="170" height="8" rx="2"/><g id="Oval-2" fill-rule="nonzero"><use fill="#FFB648" xlink:href="#path-5"/><use fill="black" fill-opacity="1" xlink:href="#path-5"/></g><rect id="Rectangle-3" fill="#D8DCDE" fill-rule="nonzero" x="68" y="284" width="120" height="20" rx="4"/><rect id="Rectangle-3" fill="#E9EBED" fill-rule="nonzero" x="70" y="315" width="170" height="8" rx="2"/><g id="Oval-2" fill-rule="nonzero"><use fill="#FFB648" xlink:href="#path-7"/><use fill="black" fill-opacity="1" xlink:href="#path-7"/></g></g></svg>