<?xml version="1.0" encoding="UTF-8" standalone="no"?>
<svg viewBox="0 0 149 164" version="1.1" xmlns="http://www.w3.org/2000/svg" xmlns:xlink="http://www.w3.org/1999/xlink">
  <g stroke="none" stroke-width="1">
    <g transform="translate(-85.000000, -71.000000)">
      <g transform="translate(85.000000, 71.000000)">
        <path d="M11.1156253,35.094157 C8.36423291,36.6731686 8.35653671,39.2671221 11.1002329,40.8614826 L69.4278278,74.7210174 C72.1715241,76.3134593 76.6738025,76.334564 79.4328911,74.7709012 L139.305499,40.8096802 C142.066511,39.2460174 142.072284,36.6731686 139.320891,35.094157 L80.2217519,1.18473837 C77.4703595,-0.394273256 72.966157,-0.394273256 70.2147646,1.18473837 L11.1156253,35.094157 Z"></path>
        <path d="M5.21203163,49.6789185 C2.47913318,48.0910279 0.234252304,49.3851491 0.224683332,52.5532501 L0.000769382805,119.903237 C-0.0107133838,123.071338 2.21120196,126.972903 4.93453144,128.574234 L64.057383,163.310061 C66.7826262,164.911392 69.0064554,163.628791 69.000714,160.46069 L68.8839725,92.4175611 C68.8801449,89.2494601 66.6390916,85.359416 63.9061932,83.7715254 L5.21203163,49.6789185 Z"></path>
        <path d="M85.2113066,49.6789185 C82.4784081,48.0910279 80.2335272,49.3851491 80.2239583,52.5532501 L80.0000443,119.903237 C79.9885615,123.071338 82.2104769,126.972903 84.9338064,128.574234 L144.056658,163.310061 C146.781901,164.911392 149.00573,163.628791 148.999989,160.46069 L148.883247,92.4175611 C148.87942,89.2494601 146.638367,85.359416 143.905468,83.7715254 L85.2113066,49.6789185 Z" transform="translate(114.500000, 106.500000) scale(-1, 1) translate(-114.500000, -106.500000)"></path>
      </g>
    </g>
  </g>
</svg>
